{
  "accessors": [
    {
      "bufferView": 2,
      "componentType": 5126,
      "count": 4,
      "max": [
        26.649675369262695,
        17.923059463500977,
        0.1620039939880371
      ],
      "min": [
        -23.727962493896484,
        -17.28176498413086,
        0.1620039939880371
      ],
      "type": "VEC3"
    },
    {
      "bufferView": 2,
      "byteOffset": 48,
      "componentType": 5126,
      "count": 4,
      "max": [
        0.0,
        -0.0,
        1.0
      ],
      "min": [
        0.0,
        -0.0,
        1.0
      ],
      "type": "VEC3"
    },
    {
      "bufferView": 1,
      "componentType": 5126,
      "count": 4,
      "max": [
        0.0,
        0.0
      ],
      "min": [
        0.0,
        0.0
      ],
      "type": "VEC2"
    },
    {
      "bufferView": 0,
      "componentType": 5125,
      "count": 6,
      "type": "SCALAR"
    },
    {
      "bufferView": 2,
      "byteOffset": 96,
      "componentType": 5126,
      "count": 3014,
      "max": [
        13.566235542297363,
        9.436264991760254,
        16.137874603271484
      ],
      "min": [
        -10.76220417022705,
        -9.42960262298584,
        -2.4573891162872314
      ],
      "type": "VEC3"
    },
    {
      "bufferView": 2,
      "byteOffset": 36264,
      "componentType": 5126,
      "count": 3014,
      "max": [
        1.0,
        1.0,
        1.0
      ],
      "min": [
        -1.0,
        -1.0,
        -1.0
      ],
      "type": "VEC3"
    },
    {
      "bufferView": 1,
      "byteOffset": 32,
      "componentType": 5126,
      "count": 3014,
      "max": [
        0.673229992389679,
        0.7527009844779968
      ],
      "min": [
        0.0,
        0.0
      ],
      "type": "VEC2"
    },
    {
      "bufferView": 0,
      "byteOffset": 24,
      "componentType": 5125,
      "count": 5883,
      "type": "SCALAR"
    },
    {
      "bufferView": 2,
      "byteOffset": 72432,
      "componentType": 5126,
      "count": 768,
      "max": [
        -1.9152040481567383,
        -3.1208839416503906,
        3.722912073135376
      ],
      "min": [
        -2.043199062347412,
        -3.2904369831085205,
        2.791969060897827
      ],
      "type": "VEC3"
    },
    {
      "bufferView": 2,
      "byteOffset": 81648,
      "componentType": 5126,
      "count": 768,
      "max": [
        1.0,
        1.0,
        1.0
      ],
      "min": [
        -1.0,
        -1.0,
        -1.0
      ],
      "type": "VEC3"
    },
    {
      "bufferView": 1,
      "byteOffset": 24144,
      "componentType": 5126,
      "count": 768,
      "max": [
        0.0,
        0.0
      ],
      "min": [
        0.0,
        0.0
      ],
      "type": "VEC2"
    },
    {
      "bufferView": 0,
      "byteOffset": 23556,
      "componentType": 5125,
      "count": 4494,
      "type": "SCALAR"
    },
    {
      "bufferView": 2,
      "byteOffset": 90864,
      "componentType": 5126,
      "count": 44,
      "max": [
        0.11659900099039078,
        -3.111823081970215,
        6.334456920623779
      ],
      "min": [
        -2.0523600578308105,
        -3.128549098968506,
        1.3519049882888794
      ],
      "type": "VEC3"
    },
    {
      "bufferView": 2,
      "byteOffset": 91392,
      "componentType": 5126,
      "count": 44,
      "max": [
        1.0,
        -0.0,
        1.0
      ],
      "min": [
        -1.0,
        -1.0,
        -1.0
      ],
      "type": "VEC3"
    },
    {
      "bufferView": 1,
      "byteOffset": 30288,
      "componentType": 5126,
      "count": 44,
      "max": [
        0.7350940108299255,
        0.9926729798316956
      ],
      "min": [
        0.26396799087524414,
        0.007776999846100807
      ],
      "type": "VEC2"
    },
    {
      "bufferView": 0,
      "byteOffset": 41532,
      "componentType": 5125,
      "count": 90,
      "type": "SCALAR"
    },
    {
      "bufferView": 2,
      "byteOffset": 91920,
      "componentType": 5126,
      "count": 4,
      "max": [
        -0.030717000365257263,
        -3.111823081970215,
        3.035640001296997
      ],
      "min": [
        -1.9050439596176147,
        -3.111823081970215,
        1.4899230003356934
      ],
      "type": "VEC3"
    },
    {
      "bufferView": 2,
      "byteOffset": 91968,
      "componentType": 5126,
      "count": 4,
      "max": [
        0.0,
        -1.0,
        0.0
      ],
      "min": [
        0.0,
        -1.0,
        0.0
      ],
      "type": "VEC3"
    },
    {
      "bufferView": 1,
      "byteOffset": 30640,
      "componentType": 5126,
      "count": 4,
      "max": [
        0.8626989722251892,
        0.8343989849090576
      ],
      "min": [
        0.1341630071401596,
        0.23359300196170807
      ],
      "type": "VEC2"
    },
    {
      "bufferView": 0,
      "byteOffset": 41892,
      "componentType": 5125,
      "count": 6,
      "type": "SCALAR"
    },
    {
      "bufferView": 2,
      "byteOffset": 92016,
      "componentType": 5126,
      "count": 177,
      "max": [
        13.358972549438477,
        8.987570762634277,
        15.352904319763184
      ],
      "min": [
        -10.47923755645752,
        -7.213159084320068,
        -2.4573891162872314
      ],
      "type": "VEC3"
    },
    {
      "bufferView": 2,
      "byteOffset": 94140,
      "componentType": 5126,
      "count": 177,
      "max": [
        1.0,
        1.0,
        0.005099934060126543
      ],
      "min": [
        -1.0,
        -1.0,
        -0.0006999998004175723
      ],
      "type": "VEC3"
    },
    {
      "bufferView": 1,
      "byteOffset": 30672,
      "componentType": 5126,
      "count": 177,
      "max": [
        3.922015905380249,
        4.25986385345459
      ],
      "min": [
        -2.891294002532959,
        -3.2273569107055664
      ],
      "type": "VEC2"
    },
    {
      "bufferView": 0,
      "byteOffset": 41916,
      "componentType": 5125,
      "count": 444,
      "type": "SCALAR"
    },
    {
      "bufferView": 2,
      "byteOffset": 96264,
      "componentType": 5126,
      "count": 80,
      "max": [
        12.545723915100098,
        9.080355644226074,
        6.5655388832092285
      ],
      "min": [
        -9.355817794799805,
        -3.205699920654297,
        2.3513150215148926
      ],
      "type": "VEC3"
    },
    {
      "bufferView": 2,
      "byteOffset": 97224,
      "componentType": 5126,
      "count": 80,
      "max": [
        0.0,
        1.0,
        0.0
      ],
      "min": [
        0.0,
        -1.0,
        0.0
      ],
      "type": "VEC3"
    },
    {
      "bufferView": 1,
      "byteOffset": 32088,
      "componentType": 5126,
      "count": 80,
      "max": [
        8.653277397155762,
        8.993891716003418
      ],
      "min": [
        -7.691123962402344,
        -7.993894100189209
      ],
      "type": "VEC2"
    },
    {
      "bufferView": 0,
      "byteOffset": 43692,
      "componentType": 5125,
      "count": 120,
      "type": "SCALAR"
    },
    {
      "bufferView": 2,
      "byteOffset": 98184,
      "componentType": 5126,
      "count": 920,
      "max": [
        12.623388290405273,
        9.114496231079102,
        6.6428351402282715
      ],
      "min": [
        -9.43348217010498,
        -3.2398390769958496,
        2.2740190029144287
      ],
      "type": "VEC3"
    },
    {
      "bufferView": 2,
      "byteOffset": 109224,
      "componentType": 5126,
      "count": 920,
      "max": [
        1.0,
        1.0,
        1.0
      ],
      "min": [
        -1.0,
        -1.0,
        -1.0
      ],
      "type": "VEC3"
    },
    {
      "bufferView": 1,
      "byteOffset": 32728,
      "componentType": 5126,
      "count": 920,
      "max": [
        0.0,
        0.0
      ],
      "min": [
        0.0,
        0.0
      ],
      "type": "VEC2"
    },
    {
      "bufferView": 0,
      "byteOffset": 44172,
      "componentType": 5125,
      "count": 1920,
      "type": "SCALAR"
    },
    {
      "bufferView": 2,
      "byteOffset": 120264,
      "componentType": 5126,
      "count": 128,
      "max": [
        13.272445678710938,
        9.018755912780762,
        11.903864860534668
      ],
      "min": [
        -10.47923755645752,
        -7.245776176452637,
        2.583559036254883
      ],
      "type": "VEC3"
    },
    {
      "bufferView": 2,
      "byteOffset": 121800,
      "componentType": 5126,
      "count": 128,
      "max": [
        1.0,
        1.0,
        1.0
      ],
      "min": [
        -1.0,
        -1.0,
        0.0
      ],
      "type": "VEC3"
    },
    {
      "bufferView": 1,
      "byteOffset": 40088,
      "componentType": 5126,
      "count": 128,
      "max": [
        0.0,
        0.0
      ],
      "min": [
        0.0,
        0.0
      ],
      "type": "VEC2"
    },
    {
      "bufferView": 0,
      "byteOffset": 51852,
      "componentType": 5125,
      "count": 192,
      "type": "SCALAR"
    },
    {
      "bufferView": 2,
      "byteOffset": 123336,
      "componentType": 5126,
      "count": 21,
      "max": [
        13.333914756774902,
        2.9661309719085693,
        1.3800690174102783
      ],
      "min": [
        -2.926853895187378,
        -9.42960262298584,
        0.4242039918899536
      ],
      "type": "VEC3"
    },
    {
      "bufferView": 2,
      "byteOffset": 123588,
      "componentType": 5126,
      "count": 21,
      "max": [
        0.0,
        -0.0,
        1.0
      ],
      "min": [
        0.0,
        -0.0,
        1.0
      ],
      "type": "VEC3"
    },
    {
      "bufferView": 1,
      "byteOffset": 41112,
      "componentType": 5126,
      "count": 21,
      "max": [
        2.0429039001464844,
        1.6005940437316895
      ],
      "min": [
        -0.74127197265625,
        -0.5218089818954468
      ],
      "type": "VEC2"
    },
    {
      "bufferView": 0,
      "byteOffset": 52620,
      "componentType": 5125,
      "count": 36,
      "type": "SCALAR"
    },
    {
      "bufferView": 2,
      "byteOffset": 123840,
      "componentType": 5126,
      "count": 273,
      "max": [
        13.566235542297363,
        9.436264991760254,
        16.162294387817383
      ],
      "min": [
        -10.76220417022705,
        -7.663175106048584,
        8.725690841674805
      ],
      "type": "VEC3"
    },
    {
      "bufferView": 2,
      "byteOffset": 127116,
      "componentType": 5126,
      "count": 273,
      "max": [
        0.8739948272705078,
        0.7733198404312134,
        0.9751573801040649
      ],
      "min": [
        -0.8740770816802979,
        -0.7278916835784912,
        -0.7279415726661682
      ],
      "type": "VEC3"
    },
    {
      "bufferView": 1,
      "byteOffset": 41280,
      "componentType": 5126,
      "count": 273,
      "max": [
        2.242616891860962,
        1.8727469444274902
      ],
      "min": [
        -1.2306400537490845,
        -1.035133957862854
      ],
      "type": "VEC2"
    },
    {
      "bufferView": 0,
      "byteOffset": 52764,
      "componentType": 5125,
      "count": 1281,
      "type": "SCALAR"
    }
  ],
  "asset": {
    "extras": {
      "author": "Fishboe (https://sketchfab.com/ministephen)",
      "license": "CC-BY-4.0 (http://creativecommons.org/licenses/by/4.0/)",
      "source": "https://sketchfab.com/3d-models/house-be18892d167f40d9bb4d7dcae0eb0573",
      "title": "House"
    },
    "generator": "Sketchfab-12.68.0",
    "version": "2.0"
  },
  "bufferViews": [
    {
      "buffer": 0,
      "byteLength": 57888,
      "name": "floatBufferViews",
      "target": 34963
    },
    {
      "buffer": 0,
      "byteLength": 43464,
      "byteOffset": 57888,
      "byteStride": 8,
      "name": "floatBufferViews",
      "target": 34962
    },
    {
      "buffer": 0,
      "byteLength": 130392,
      "byteOffset": 101352,
      "byteStride": 12,
      "name": "floatBufferViews",
      "target": 34962
    }
  ],
  "buffers": [
    {
      "byteLength": 231744,
      "uri": "scene.bin"
    }
  ],
  "images": [
    {
      "uri": "textures/door1_baseColor.jpeg"
    },
    {
      "uri": "textures/door2_baseColor.jpeg"
    },
    {
      "uri": "textures/foof_baseColor.png"
    },
    {
      "uri": "textures/panesl_baseColor.png"
    },
    {
      "uri": "textures/slats_baseColor.png"
    },
    {
      "uri": "textures/woodfloor_baseColor.jpeg"
    }
  ],
  "materials": [
    {
      "doubleSided": true,
      "name": "Material.013",
      "pbrMetallicRoughness": {
        "baseColorFactor": [
          0.0062652249,
          0.0401123261,
          0.0,
          1.0
        ],
        "metallicFactor": 0.0,
        "roughnessFactor": 0.843491542
      }
    },
    {
      "doubleSided": true,
      "name": "Material.014",
      "pbrMetallicRoughness": {
        "baseColorFactor": [
          0.64,
          0.64,
          0.64,
          1.0
        ],
        "metallicFactor": 0.0748856707,
        "roughnessFactor": 0.1446265244
      }
    },
    {
      "doubleSided": true,
      "name": "black_stuff",
      "pbrMetallicRoughness": {
        "baseColorFactor": [
          0.11036585363200001,
          0.11036585363200001,
          0.11036585363200001,
          1.0
        ],
        "roughnessFactor": 0.12633384150000004
      }
    },
    {
      "doubleSided": true,
      "name": "door1",
      "pbrMetallicRoughness": {
        "baseColorTexture": {
          "index": 0
        },
        "metallicFactor": 0.0,
        "roughnessFactor": 0.7421875
      }
    },
    {
      "doubleSided": true,
      "name": "door2",
      "pbrMetallicRoughness": {
        "baseColorTexture": {
          "index": 1
        },
        "metallicFactor": 0.0,
        "roughnessFactor": 0.7116996951
      }
    },
    {
      "doubleSided": true,
      "name": "foof",
      "pbrMetallicRoughness": {
        "baseColorTexture": {
          "index": 2
        },
        "roughnessFactor": 0.9251143293
      }
    },
    {
      "doubleSided": true,
      "name": "panesl",
      "pbrMetallicRoughness": {
        "baseColorTexture": {
          "index": 3
        },
        "metallicFactor": 0.0748856707,
        "roughnessFactor": 0.10194359760000005
      }
    },
    {
      "doubleSided": true,
      "name": "slats",
      "pbrMetallicRoughness": {
        "baseColorTexture": {
          "index": 4
        },
        "metallicFactor": 0.0,
        "roughnessFactor": 0.22389481710000003
      }
    },
    {
      "doubleSided": true,
      "name": "slats_wood",
      "pbrMetallicRoughness": {
        "baseColorFactor": [
          0.1620293756,
          0.0666259386,
          0.0159962934,
          1.0
        ],
        "metallicFactor": 0.0,
        "roughnessFactor": 0.20560213409999994
      }
    },
    {
      "alphaMode": "BLEND",
      "doubleSided": true,
      "emissiveFactor": [
        0.0171493902,
        0.0171493902,
        0.0171493902
      ],
      "name": "window",
      "pbrMetallicRoughness": {
        "baseColorFactor": [
          1.0,
          1.0,
          1.0,
          0.8980564024390245
        ],
        "roughnessFactor": 0.0
      }
    },
    {
      "doubleSided": true,
      "name": "woodfloor",
      "pbrMetallicRoughness": {
        "baseColorTexture": {
          "index": 5
        },
        "metallicFactor": 0.4651295732,
        "roughnessFactor": 0.33365091459999996
      }
    }
  ],
  "meshes": [
    {
      "name": "Object_0",
      "primitives": [
        {
          "attributes": {
            "NORMAL": 1,
            "POSITION": 0,
            "TEXCOORD_0": 2
          },
          "indices": 3,
          "material": 0,
          "mode": 4
        }
      ]
    },
    {
      "name": "Object_1",
      "primitives": [
        {
          "attributes": {
            "NORMAL": 5,
            "POSITION": 4,
            "TEXCOORD_0": 6
          },
          "indices": 7,
          "material": 1,
          "mode": 4
        }
      ]
    },
    {
      "name": "Object_2",
      "primitives": [
        {
          "attributes": {
            "NORMAL": 9,
            "POSITION": 8,
            "TEXCOORD_0": 10
          },
          "indices": 11,
          "material": 2,
          "mode": 4
        }
      ]
    },
    {
      "name": "Object_3",
      "primitives": [
        {
          "attributes": {
            "NORMAL": 13,
            "POSITION": 12,
            "TEXCOORD_0": 14
          },
          "indices": 15,
          "material": 3,
          "mode": 4
        }
      ]
    },
    {
      "name": "Object_4",
      "primitives": [
        {
          "attributes": {
            "NORMAL": 17,
            "POSITION": 16,
            "TEXCOORD_0": 18
          },
          "indices": 19,
          "material": 4,
          "mode": 4
        }
      ]
    },
    {
      "name": "Object_5",
      "primitives": [
        {
          "attributes": {
            "NORMAL": 21,
            "POSITION": 20,
            "TEXCOORD_0": 22
          },
          "indices": 23,
          "material": 6,
          "mode": 4
        }
      ]
    },
    {
      "name": "Object_6",
      "primitives": [
        {
          "attributes": {
            "NORMAL": 25,
            "POSITION": 24,
            "TEXCOORD_0": 26
          },
          "indices": 27,
          "material": 7,
          "mode": 4
        }
      ]
    },
    {
      "name": "Object_7",
      "primitives": [
        {
          "attributes": {
            "NORMAL": 29,
            "POSITION": 28,
            "TEXCOORD_0": 30
          },
          "indices": 31,
          "material": 8,
          "mode": 4
        }
      ]
    },
    {
      "name": "Object_8",
      "primitives": [
        {
          "attributes": {
            "NORMAL": 33,
            "POSITION": 32,
            "TEXCOORD_0": 34
          },
          "indices": 35,
          "material": 9,
          "mode": 4
        }
      ]
    },
    {
      "name": "Object_9",
      "primitives": [
        {
          "attributes": {
            "NORMAL": 37,
            "POSITION": 36,
            "TEXCOORD_0": 38
          },
          "indices": 39,
          "material": 10,
          "mode": 4
        }
      ]
    },
    {
      "name": "Object_10",
      "primitives": [
        {
          "attributes": {
            "NORMAL": 41,
            "POSITION": 40,
            "TEXCOORD_0": 42
          },
          "indices": 43,
          "material": 5,
          "mode": 4
        }
      ]
    }
  ],
  "nodes": [
    {
      "children": [
        1
      ],
      "matrix": [
        0.4253351092338562,
        0.0,
        0.0,
        0.0,
        0.0,
        9.444336629057664e-17,
        -0.4253351092338562,
        0.0,
        0.0,
        0.4253351092338562,
        9.444336629057664e-17,
        0.0,
        0.0,
        0.0,
        0.0,
        1.0
      ],
      "name": "Sketchfab_model"
    },
    {
      "children": [
        2,
        3,
        4,
        5,
        6,
        7,
        8,
        9,
        10,
        11,
        12
      ],
      "name": "horse.obj.cleaner.materialmerger.gles"
    },
    {
      "mesh": 0,
      "name": "Object_2"
    },
    {
      "mesh": 1,
      "name": "Object_3"
    },
    {
      "mesh": 2,
      "name": "Object_4"
    },
    {
      "mesh": 3,
      "name": "Object_5"
    },
    {
      "mesh": 4,
      "name": "Object_6"
    },
    {
      "mesh": 5,
      "name": "Object_7"
    },
    {
      "mesh": 6,
      "name": "Object_8"
    },
    {
      "mesh": 7,
      "name": "Object_9"
    },
    {
      "mesh": 8,
      "name": "Object_10"
    },
    {
      "mesh": 9,
      "name": "Object_11"
    },
    {
      "mesh": 10,
      "name": "Object_12"
    }
  ],
  "samplers": [
    {
      "magFilter": 9729,
      "minFilter": 9987,
      "wrapS": 10497,
      "wrapT": 10497
    }
  ],
  "scene": 0,
  "scenes": [
    {
      "name": "Sketchfab_Scene",
      "nodes": [
        0
      ]
    }
  ],
  "textures": [
    {
      "sampler": 0,
      "source": 0
    },
    {
      "sampler": 0,
      "source": 1
    },
    {
      "sampler": 0,
      "source": 2
    },
    {
      "sampler": 0,
      "source": 3
    },
    {
      "sampler": 0,
      "source": 4
    },
    {
      "sampler": 0,
      "source": 5
    }
  ]
}
